<?xml version="1.0" encoding="utf-8"?>
<!-- Generator: Adobe Illustrator 16.0.0, SVG Export Plug-In . SVG Version: 6.00 Build 0)  -->
<!DOCTYPE svg PUBLIC "-//W3C//DTD SVG 1.1//EN" "http://www.w3.org/Graphics/SVG/1.1/DTD/svg11.dtd">
<svg version="1.1" id="Layer_1" xmlns="http://www.w3.org/2000/svg" xmlns:xlink="http://www.w3.org/1999/xlink" x="0px" y="0px"
	 width="472.27px" height="127.84px" viewBox="-198.635 204.08 472.27 127.84"
	 enable-background="new -198.635 204.08 472.27 127.84" xml:space="preserve">
<g>
	<g>
		<path d="M-173.168,262.792c-1.005,0-1.491-0.555-1.491-1.698v-17.612l-14.699-27.352c-0.173-0.382-0.277-0.729-0.277-1.109
			c0-0.729,0.312-1.074,0.936-1.074h9.291c0.624,0,1.075,0.312,1.352,0.937l9.014,18.027h0.208l8.736-18.027
			c0.312-0.625,0.763-0.937,1.352-0.937h9.014c0.589,0,0.867,0.347,0.867,1.074c0,0.381-0.104,0.729-0.277,1.109l-14.63,27.354
			v17.541c0,1.18-0.555,1.769-1.629,1.769L-173.168,262.792L-173.168,262.792z"/>
		<path d="M-140.789,262.792c-1.04,0-1.56-0.555-1.56-1.698v-45.519c0-1.075,0.485-1.631,1.491-1.631h28.116
			c0.728,0,1.283,0.66,1.283,1.492v6.967c0,1.041-0.485,1.561-1.421,1.561h-18.583v9.43h16.606c0.728,0,1.283,0.659,1.283,1.491
			v6.968c0,1.006-0.485,1.491-1.421,1.491h-16.468v9.499h19.31c0.659,0,1.248,0.693,1.248,1.422v6.969
			c0,1.039-0.485,1.56-1.421,1.56L-140.789,262.792L-140.789,262.792z"/>
		<path d="M-99.811,259.36c-3.293-2.912-4.923-6.795-4.923-11.685c0-1.144,0.52-1.698,1.56-1.698h7.038
			c0.936,0,1.456,0.556,1.56,1.698c0.381,4.058,3.397,6.728,8.008,6.728c3.987,0,6.448-2.08,6.448-5.166
			c0-2.045-0.763-3.57-2.288-4.576c-1.56-1.006-4.16-2.08-7.835-3.225c-9.222-3.017-13.833-7.869-13.867-14.49
			c0-4.16,1.595-7.523,4.75-10.055c3.155-2.531,7.107-3.812,11.926-3.812c5.027,0,8.979,1.387,11.891,4.125
			s4.368,6.414,4.368,10.955c0,1.04-0.485,1.561-1.491,1.561h-7.8c-0.901,0-1.421-0.521-1.56-1.561
			c-0.416-3.883-2.323-5.824-5.686-5.824c-3.155,0-5.166,2.012-5.166,4.611c0,1.525,0.971,2.877,1.976,3.777
			c0.485,0.45,1.352,0.971,2.565,1.525c1.213,0.589,2.253,1.005,3.051,1.316c0.798,0.312,2.149,0.798,4.056,1.457
			c8.286,2.877,12.411,7.487,12.411,13.797c0,4.334-1.56,7.904-4.715,10.714c-3.155,2.808-7.523,4.194-13.174,4.194
			C-92.149,263.729-96.518,262.272-99.811,259.36z"/>
		<path d="M-59.146,272.257c-0.832-0.729-1.248-1.213-1.248-1.524c0-0.242,0.104-0.451,0.347-0.693
			c2.601-2.877,4.194-5.026,4.715-6.379c-2.53,0-4.576-2.045-4.576-5.271c0-1.629,0.521-2.877,1.595-3.779
			c1.041-0.865,2.289-1.315,3.744-1.315c3.502,0,5.479,2.496,5.479,6.379c0,1.837-0.59,3.884-1.733,6.103
			c-1.179,2.219-2.427,4.021-3.709,5.44c-1.282,1.387-2.219,2.08-2.739,2.08C-57.688,273.296-58.313,272.95-59.146,272.257z"/>
	</g>
	<g>
		<path d="M-30.251,262.792c-1.04,0-1.561-0.555-1.561-1.698v-45.519c0-1.075,0.485-1.631,1.492-1.631h7.592
			c0.623,0,1.144,0.348,1.56,1.076l18.271,30.092l0.139-0.07c-0.139-1.421-0.208-3.051-0.208-4.889v-24.578
			c0-0.832,0.521-1.631,1.491-1.631h7.314c1.04,0,1.561,0.59,1.561,1.77v45.311c0,1.18-0.521,1.769-1.561,1.769h-7.627
			c-0.624,0-1.074-0.346-1.387-1.005l-18.34-29.605l-0.139,0.068c0.139,1.698,0.209,3.434,0.209,5.2v23.573
			c0,1.18-0.556,1.769-1.63,1.769L-30.251,262.792L-30.251,262.792z"/>
		<path d="M22.548,256.761c-3.71-4.646-5.547-10.781-5.547-18.408c0-7.594,1.872-13.729,5.65-18.34
			c3.779-4.611,9.049-6.934,15.877-6.934c6.83,0,12.064,2.322,15.705,6.934c3.642,4.61,5.443,10.746,5.443,18.34
			c0,7.627-1.873,13.763-5.617,18.408c-3.777,4.646-9.082,6.969-15.947,6.969C31.423,263.729,26.258,261.405,22.548,256.761z
			 M45.429,250.034c1.698-2.912,2.53-6.829,2.53-11.752c0-4.924-0.762-8.807-2.321-11.684c-1.562-2.843-3.953-4.265-7.107-4.265
			c-3.086,0-5.477,1.456-7.211,4.368c-1.732,2.912-2.6,6.761-2.6,11.579c0,4.923,0.831,8.84,2.461,11.752
			c1.629,2.911,3.986,4.368,7.004,4.368C41.304,254.403,43.729,252.946,45.429,250.034z"/>
		<path d="M107.937,260.019c0.45,0.659,0.692,1.248,0.729,1.77c0,0.659-0.348,1.005-1.006,1.005H97.71
			c-0.764,0-1.354-0.381-1.77-1.144l-9.151-13.901h-0.624h-5.963v13.276c0,1.18-0.555,1.769-1.664,1.769h-7.662
			c-0.936,0-1.561-0.692-1.561-1.698v-45.312c0-1.213,0.521-1.838,1.561-1.838h16.053c5.547,0,10.019,1.525,13.381,4.543
			c3.363,3.016,5.027,7.105,5.027,12.203c0,5.686-2.912,10.781-7.766,13.936L107.937,260.019z M80.201,223.964v14.561h4.159
			c6.138,0,9.223-2.529,9.257-7.627c0-4.541-3.119-7.037-8.25-6.934H80.201z"/>
		<path d="M117.227,262.792c-0.937,0-1.561-0.693-1.561-1.698v-45.519c0-1.075,0.485-1.631,1.422-1.631h9.152
			c0.45,0,0.866,0.277,1.213,0.799l13.937,23.47l13.833-23.401c0.382-0.588,0.763-0.865,1.214-0.865h9.014
			c1.04,0,1.561,0.589,1.561,1.769v45.312c0,1.179-0.555,1.768-1.63,1.768h-7.245c-0.832,0-1.49-0.762-1.49-1.697v-27.355
			c0-2.047,0.068-3.294,0.208-3.814l-0.208-0.068l-10.02,18.306c-0.312,0.623-0.729,0.937-1.214,0.937h-8.147
			c-0.52,0-0.971-0.312-1.281-0.937l-9.95-18.375l-0.277,0.069c0,0.14,0.035,0.798,0.14,1.941c0.104,1.145,0.139,1.941,0.139,2.393
			v26.832c0,1.074-0.658,1.769-1.629,1.769L117.227,262.792L117.227,262.792z"/>
		<path d="M217.624,260.608c0.173,0.59,0.277,0.971,0.277,1.179c0,0.659-0.312,1.005-0.901,1.005h-9.326
			c-0.728,0-1.178-0.312-1.352-0.936l-2.045-7.385h-16.398l-2.148,7.385c-0.174,0.623-0.59,0.936-1.248,0.936h-9.015
			c-0.624,0-0.937-0.346-0.937-1.005c0-0.277,0.104-0.659,0.276-1.179l14.978-45.521c0.243-0.762,0.659-1.144,1.283-1.144h10.436
			c0.589,0,0.971,0.382,1.213,1.144L217.624,260.608z M190.444,245.597h11.404l-5.441-19.726h-0.208L190.444,245.597z"/>
		<path d="M226.984,262.792c-1.039,0-1.561-0.555-1.561-1.698v-45.519c0-1.075,0.485-1.631,1.491-1.631h7.592
			c0.624,0,1.146,0.348,1.562,1.076l18.27,30.092l0.139-0.07c-0.139-1.421-0.208-3.051-0.208-4.889v-24.578
			c0-0.832,0.521-1.631,1.491-1.631h7.314c1.04,0,1.561,0.59,1.561,1.77v45.311c0,1.18-0.521,1.769-1.561,1.769h-7.627
			c-0.624,0-1.074-0.346-1.388-1.005l-18.34-29.605l-0.139,0.068c0.139,1.698,0.209,3.434,0.209,5.2v23.573
			c0,1.18-0.555,1.769-1.63,1.769L226.984,262.792L226.984,262.792z"/>
	</g>
	<g>
		<path d="M-121.13,306.298c-0.969-0.893-1.795-2.188-2.45-3.889c-0.684-1.699-1.025-3.572-1.025-5.677
			c0-4.955,1.937-8.987,5.84-12.129c3.875-3.139,8.689-4.694,14.443-4.694c4.9,0,9.06,1.297,12.45,3.918s5.071,6.078,5.071,10.313
			c0,3.484-1.026,6.338-3.077,8.555c-2.08,2.22-4.644,3.314-7.721,3.314c-2.535,0-4.472-0.895-4.33-1.182
			c0-0.375,0.2-1.123,0.57-2.248c0.371-1.123,0.655-1.67,0.883-1.67c0.028,0,0.342,0.086,0.94,0.287
			c0.598,0.203,1.225,0.318,1.937,0.318c1.681,0,3.105-0.691,4.273-2.048c1.168-1.354,1.738-3.11,1.738-5.327
			c0-2.91-1.253-5.273-3.732-7.06c-2.479-1.787-5.583-2.681-9.287-2.681c-4.558,0-8.233,1.211-11.053,3.658
			c-2.82,2.449-4.245,5.301-4.245,8.615c0,2.246,0.513,4.061,1.539,5.473c0.997,1.412,2.222,2.363,3.618,2.853
			c0.313,0.115,0.456,0.26,0.456,0.461c0,0.722-0.484,1.787-1.453,3.199c-0.171,0.258-0.37,0.401-0.598,0.401
			C-117.455,309.062-119.221,308.111-121.13,306.298z M-117.655,322.286c-1.025-0.433-1.766-0.894-2.222-1.384
			c-0.484-0.461-0.712-0.834-0.712-1.123c0-0.26,0.342-0.862,1.054-1.784c0.712-0.922,1.168-1.384,1.396-1.384
			c0.142,0,0.456,0.201,0.883,0.604c0.969,0.865,1.909,1.298,2.849,1.298c3.846,0,5.783-3.283,5.783-9.853
			c0-2.047-0.028-4.955-0.085-8.729c-0.057-3.773-0.085-6.365-0.085-7.748c0-0.896,0.371-1.355,1.083-1.355h3.163
			c0.626,0,0.94,0.404,0.94,1.24l-0.057,16.709c0,3.543-0.769,6.711-2.364,9.535c-1.596,2.821-4.587,4.608-8.375,4.608
			C-115.575,322.921-116.657,322.721-117.655,322.286z"/>
		<path d="M-51.383,309.468c0.797,0.433,1.196,0.777,1.196,1.009c0,0.145-0.028,0.346-0.114,0.604
			c-0.94,2.793-2.45,5.271-4.587,7.461c-2.137,2.22-4.758,3.312-7.834,3.312c-2.479,0-4.529-0.748-6.125-2.246
			c-1.594-1.471-2.393-3.43-2.393-5.877c0-2.623,1.084-6.973,3.219-13.051l-0.113-0.174c-1.852,0.52-3.817,0.779-5.84,0.779
			c-1.168,0-2.336-0.115-3.504-0.318v0.836c0,1.729-0.228,3.631-0.655,5.676c-0.456,2.074-1.083,3.832-1.852,5.242
			c-0.114,0.26-0.256,0.404-0.399,0.404c-0.313,0-0.854-0.23-1.681-0.691c-0.826-0.432-1.253-0.776-1.253-1.008
			c0,0,0.256-0.922,0.427-1.24c1.168-2.821,1.738-5.817,1.738-9.016c0-0.549-0.029-0.98-0.057-1.24
			c-0.826-0.373-1.595-0.863-2.336-1.438c-0.484-0.433-0.712-0.808-0.712-1.097c0-0.346,0.342-1.008,1.026-1.959
			c0.684-0.949,1.196-1.41,1.566-1.41c0.228,0,1.111,0.72,2.251,1.384c1.111,0.661,3.646,1.383,6.609,1.383
			c3.534,0.058,7.065-1.326,7.237-1.297c0.312,0,0.854,0.432,1.68,1.323c0.826,0.896,1.226,1.472,1.226,1.759
			c0,0.2-0.285,1.123-0.883,2.823c-0.599,1.699-1.226,3.629-1.823,5.849c-0.598,2.219-0.912,4.119-0.912,5.703
			c0,2.766,1.682,4.493,4.502,4.493c1.852,0,3.504-0.834,4.957-2.534c1.452-1.699,2.563-3.572,3.389-5.617
			c0.115-0.315,0.257-0.461,0.457-0.461C-52.722,308.833-52.181,309.034-51.383,309.468z"/>
		<path d="M-14.457,298.434c0.427,0.836,0.626,1.354,0.626,1.557c0,0.547-1.48,1.469-4.416,2.131c-1.453,0.346-3.02,0.52-4.645,0.52
			c-2.42,0-4.672-0.49-6.75-1.469c1.054,2.045,1.565,4.291,1.565,6.77c0,3.773-1.168,7.06-3.504,9.795
			c-2.336,2.736-5.612,4.119-9.8,4.119c-3.846,0-6.979-1.237-9.344-3.717c-2.364-2.477-3.562-5.762-3.562-9.852
			c0-3.861,1.253-7.115,3.761-9.738c2.508-2.621,5.727-3.945,9.657-3.945c2.849,0,5.327,0.748,7.464,2.246
			c0.655-1.065,1.226-1.584,1.709-1.584c0.086,0,0.514,0.287,1.312,0.836c0.797,0.576,1.909,1.152,3.36,1.699
			c1.424,0.547,2.963,0.836,4.588,0.836c1.168,0,2.307-0.115,3.447-0.375c1.139-0.229,2.022-0.461,2.678-0.721
			c0.627-0.23,0.969-0.346,0.996-0.346C-15.169,297.193-14.884,297.6-14.457,298.434z M-35.396,314.939
			c1.424-1.813,2.137-4.205,2.137-7.114c0-2.621-0.684-4.783-2.051-6.482c-1.367-1.698-3.219-2.534-5.555-2.534
			c-2.422,0-4.388,0.922-5.898,2.766c-1.538,1.844-2.307,4.062-2.307,6.654c0,2.91,0.769,5.215,2.278,6.914
			c1.511,1.7,3.39,2.534,5.642,2.534C-38.729,317.677-36.819,316.755-35.396,314.939z"/>
		<path d="M-17.955,318.195c-2.08-2.42-3.134-5.616-3.134-9.594c0-3.946,1.168-7.26,3.477-9.967c2.307-2.68,5.326-4.033,9.03-4.033
			c3.447,0,6.438,1.123,8.974,3.369l0.229-0.115v-15.584c0-0.836,0.371-1.239,1.111-1.239h2.734c0.74,0,1.111,0.403,1.111,1.182
			c0,0.636-0.114,5.271-0.371,13.943c-0.256,8.672-0.37,13.942-0.37,15.786c0,3.312,1.253,5.502,3.847,5.502
			c1.68,0,3.19-0.834,4.558-2.534c1.339-1.699,2.479-3.572,3.362-5.675c0.113-0.26,0.285-0.403,0.483-0.403
			c0.256,0,0.797,0.201,1.567,0.635c0.769,0.433,1.168,0.748,1.168,0.949c0,0.203-0.029,0.403-0.114,0.664
			c-0.854,2.621-2.336,5.069-4.444,7.346c-2.137,2.275-4.615,3.429-7.464,3.429c-2.25,0-4.045-0.605-5.384-1.785
			c-1.339-1.182-2.023-2.766-2.023-4.754l0.058-0.951l-0.228-0.057c-0.77,2.102-2.052,3.858-3.789,5.328
			c-1.738,1.471-3.817,2.219-6.24,2.219C-13.14,321.854-15.875,320.646-17.955,318.195z M-2.372,312.723
			c1.682-3.14,2.536-6.539,2.536-10.142c-0.771-0.949-1.853-1.756-3.22-2.478c-1.367-0.721-2.764-1.065-4.188-1.065
			c-2.479,0-4.558,0.922-6.21,2.735c-1.681,1.816-2.507,4.179-2.507,7.06c0,2.594,0.654,4.668,1.966,6.252s2.964,2.36,4.929,2.36
			C-6.303,317.445-4.081,315.861-2.372,312.723z"/>
		<path d="M16.438,312.204v-15.759c0-0.778,0.398-1.182,1.168-1.182h2.849c0.741,0,1.11,0.375,1.11,1.123
			c0,1.182-0.028,3.603-0.084,7.318c-0.058,3.715-0.086,6.25-0.086,7.547c0,4.264,1.254,6.193,4.188,6.193
			c1.624,0,3.162-0.949,4.615-2.822c1.452-1.873,2.592-4.234,3.418-7.145c0.825-2.881,1.253-5.82,1.253-8.845v-2.073
			c0-0.865,0.342-1.297,1.054-1.297h2.906c0.739,0,1.11,0.401,1.11,1.182c0,0.518-0.086,2.592-0.229,6.193
			c-0.143,3.601-0.229,6.538-0.229,8.786c0,3.543,1.281,6.021,4.018,6.021c1.709,0,3.247-0.863,4.615-2.592
			c1.367-1.729,2.449-3.603,3.275-5.617c0.113-0.26,0.284-0.404,0.512-0.404c0.258,0,0.799,0.201,1.568,0.635
			c0.769,0.432,1.168,0.777,1.168,1.008c0,0.146-0.029,0.346-0.115,0.605c-0.883,2.42-2.137,4.725-4.072,7
			c-1.938,2.305-4.872,3.773-8.062,3.773c-2.222,0-3.959-0.633-5.212-1.931c-1.283-1.268-1.909-2.938-1.909-5.014
			c0-1.009,0.027-1.845,0.113-2.478l-0.229-0.059c-0.77,2.508-2.107,4.725-3.959,6.627c-1.881,1.9-4.131,2.852-6.723,2.852
			C19.087,321.854,16.409,318.628,16.438,312.204z"/>
		<path d="M54.505,318.195c-2.648-2.42-3.96-5.676-3.96-9.766c0-3.832,1.196-7.088,3.562-9.795c2.365-2.68,5.328-4.033,8.859-4.033
			c2.479,0,4.559,0.719,6.239,2.16c1.651,1.439,2.479,3.082,2.479,4.926c0,0.347-0.457,0.722-1.396,1.097
			c-0.939,0.401-1.682,0.604-2.165,0.604c-0.342,0-0.541-0.173-0.599-0.519c-0.371-2.334-2.08-3.832-4.672-3.832
			c-1.965,0-3.676,0.864-5.07,2.563c-1.396,1.699-2.108,3.859-2.108,6.453c0,3.082,0.97,5.445,2.877,7.115
			c1.909,1.672,4.302,2.506,7.181,2.506c2.963,0,5.412-0.807,7.32-2.447c1.908-1.643,3.361-3.631,4.33-5.992
			c0.229-0.549,0.484-0.635,2.08,0.23c0.797,0.432,1.196,0.777,1.196,1.008c0,0.086-0.058,0.287-0.171,0.662
			c-0.969,2.824-2.764,5.301-5.356,7.461c-2.62,2.162-6.067,3.256-10.341,3.256C60.544,321.854,57.126,320.646,54.505,318.195z"/>
		<path d="M98.581,309.468c0.798,0.433,1.196,0.748,1.196,0.949c0,0.115-0.058,0.347-0.171,0.722
			c-0.77,2.334-1.994,4.608-4.018,6.885c-2.021,2.305-5.128,3.832-8.632,3.832c-2.878,0-5.214-0.951-6.951-2.881
			c-1.737-1.931-2.62-4.523-2.62-7.777v-11.698c-0.514,0.028-1.141,0.06-1.881,0.06s-1.111-0.318-1.111-0.923v-2.305
			c0-0.636,0.285-0.951,0.883-0.951c0.855,0,1.568,0.029,2.109,0.058v-7.317c0-0.777,0.342-1.183,1.053-1.183h2.963
			c0.656,0,0.998,0.375,0.998,1.123v7.435c2.648-0.086,4.673-0.115,6.125-0.115c0.513,0,0.77,0.287,0.77,0.836v2.42
			c0,0.634-0.285,0.949-0.826,0.923c-1.367,0-3.419-0.029-6.125-0.115v9.391c0,5.561,1.426,8.613,5.557,8.613
			c2.021,0,3.76-0.834,5.213-2.535c1.453-1.699,2.593-3.572,3.419-5.674C96.758,308.688,96.985,308.604,98.581,309.468z"/>
		<path d="M95.851,286.882c0-1.815,1.367-3.055,3.162-3.055s3.105,1.123,3.105,2.938c0,1.959-1.196,3.312-3.219,3.312
			C97.104,290.079,95.851,288.753,95.851,286.882z M98.785,319.175c-1.597-1.784-2.394-4.264-2.394-7.401v-15.328
			c0-0.778,0.342-1.182,1.055-1.182h2.904c0.771,0,1.168,0.402,1.168,1.182c0,0.634-0.027,2.767-0.085,6.425
			c-0.058,3.657-0.086,6.192-0.086,7.604c0,4.64,1.624,6.971,4.9,6.971c1.253,0,2.479-0.487,3.646-1.497
			c1.168-0.979,2.108-2.017,2.765-3.14c0.655-1.125,1.225-2.276,1.709-3.516c0.114-0.316,0.285-0.461,0.513-0.461
			c0.256,0,0.798,0.201,1.566,0.635c0.77,0.432,1.168,0.777,1.168,1.008c0,0.146-0.028,0.346-0.113,0.605
			c-0.969,2.793-2.479,5.271-4.53,7.461c-2.079,2.219-4.644,3.312-7.72,3.312C102.546,321.854,100.38,320.962,98.785,319.175z"/>
		<path d="M150.779,296.357c0.312,0.722,0.483,1.24,0.483,1.498c0,0.261-0.229,0.605-0.654,1.011
			c-0.912,0.834-2.364,1.756-4.759,2.391c-1.225,0.316-2.449,0.49-3.73,0.49c-1.368,0-2.707-0.229-4.046-0.69
			c1.083,2.102,1.624,4.379,1.651,6.885c0,3.772-1.168,7.059-3.504,9.795s-5.611,4.119-9.8,4.119c-3.846,0-6.979-1.238-9.344-3.717
			c-2.365-2.478-3.562-5.763-3.562-9.853c0-3.861,1.255-7.115,3.762-9.738c2.507-2.621,5.726-3.944,9.656-3.944
			c2.878,0,5.386,0.748,7.521,2.246c0.599-1.066,1.14-1.584,1.652-1.584c0.086-0.115,2.535,2.62,6.354,2.534
			c2.479,0,4.757-0.776,6.837-2.305c0.199-0.146,0.429-0.229,0.685-0.229C150.181,295.266,150.437,295.641,150.779,296.357z
			 M132.404,314.939c1.425-1.813,2.137-4.205,2.137-7.114c0-2.621-0.684-4.783-2.051-6.482c-1.368-1.698-3.22-2.534-5.557-2.534
			c-2.422,0-4.387,0.922-5.896,2.766c-1.538,1.844-2.307,4.062-2.307,6.654c0,2.91,0.769,5.215,2.277,6.914
			c1.51,1.7,3.392,2.534,5.642,2.534C129.071,317.677,130.979,316.755,132.404,314.939z"/>
		<path d="M168.99,319.725c-1.567-1.412-2.336-3.257-2.336-5.531c0-1.211,0.085-2.939,0.228-5.158
			c0.144-2.217,0.199-3.918,0.199-5.041c0-3.312-1.311-4.955-3.902-4.955c-1.852,0-3.532,1.066-5.015,3.227
			c-1.48,2.16-2.563,4.64-3.247,7.404c-0.684,2.795-1.025,5.416-1.025,7.893v2.479c0,0.836-0.371,1.237-1.11,1.237h-2.792
			c-0.74,0-1.111-0.401-1.111-1.237v-23.424c0-0.894,0.371-1.354,1.111-1.354h2.792c0.739,0,1.11,0.402,1.11,1.182
			c0,0.604-0.143,2.65-0.284,4.955c-0.087,1.181-0.144,1.986-0.172,2.478l0.229,0.06c0.884-2.595,2.279-4.812,4.131-6.627
			c1.853-1.815,4.104-2.707,6.724-2.707c4.985,0,7.749,2.881,7.749,7.748c0,0.375-0.058,1.787-0.199,4.207
			c-0.143,2.42-0.199,4.379-0.199,5.877c0,3.342,1.254,5.012,3.731,5.012c1.682,0,3.19-0.834,4.586-2.506
			c1.368-1.67,2.479-3.572,3.333-5.703c0.114-0.26,0.285-0.404,0.484-0.404c0.229,0,0.741,0.201,1.539,0.635
			c0.797,0.432,1.196,0.777,1.196,1.008c0,0.146-0.028,0.347-0.114,0.605c-0.769,2.189-1.966,4.406-3.874,6.77
			c-1.909,2.361-4.872,4.004-8.146,4.004C172.408,321.854,170.557,321.134,168.99,319.725z"/>
		<path d="M189.793,321.163c-1.225-0.433-2.137-0.922-2.792-1.412c-0.655-0.487-0.968-0.862-0.968-1.123
			c0-0.375,0.256-1.008,0.769-1.873c0.484-0.834,0.854-1.269,1.111-1.269c0.085-0.114,3.076,2.019,5.299,1.959
			c1.938,0,3.447-0.633,4.559-1.93c1.083-1.268,1.624-2.707,1.624-4.32c0-3.141-1.71-5.215-5.129-7.721
			c-2.534-1.815-4.501-3.313-5.896-4.494l-0.171,0.115c0.142,1.094,0.228,2.103,0.228,2.996c0,3.543-0.825,7.086-2.507,10.629
			c-0.143,0.26-0.285,0.404-0.398,0.404c-0.343,0-0.911-0.23-1.709-0.691c-0.826-0.432-1.226-0.776-1.226-1.008
			c0-0.145,0.342-0.951,0.484-1.24c1.253-3.139,1.88-6.309,1.852-9.506c0-2.967-0.826-5.676-0.826-5.963
			c0-0.346,0.541-0.865,1.597-1.527c1.054-0.662,1.794-1.008,2.277-1.008c0.199,0,0.429,0.172,0.685,0.547
			c1.624,1.959,4.443,4.293,8.461,7c2.365,1.644,4.217,3.342,5.499,5.041c1.281,1.729,1.908,3.861,1.908,6.367
			c0,3.312-1.055,5.906-3.135,7.836c-2.107,1.93-4.729,2.881-7.891,2.881C192.243,321.854,191.019,321.624,189.793,321.163z"/>
	</g>
</g>
</svg>